<?xml version="1.0" encoding="utf-8" ?><svg xmlns="http://www.w3.org/2000/svg" xmlns:xlink="http://www.w3.org/1999/xlink" width="500" height="500" viewBox="0 0 500 500"><path fill="#020101" transform="scale(0.488281 0.488281)" d="M0 0L690.951 0L698.073 0L785.223 0L790.408 0L1024 0L1024 1024L1002.79 1024L994.926 1024L913.139 1024L907.044 1024L711.914 1024L707.269 1024L639.816 1024L630.009 1024L564.751 1024L558.452 1024L468.414 1024L461.928 1024L395.157 1024L381.996 1024L323.517 1024L316.981 1024L117.258 1024L110.511 1024L26.2295 1024L18.5686 1024L0 1024L0 0Z"/><path fill="#62C5D8" transform="scale(0.488281 0.488281)" d="M0 0L690.951 0C714.058 30.0651 730.285 78.9743 730.588 117.024C721.423 106.491 712.336 95.5563 701.455 86.7823C688.934 76.6867 674.876 68.2428 660.726 60.6652C612.032 34.5881 555.048 16.5543 499.82 12.7012C465.764 10.6088 431.584 13.3704 398.306 20.9028C378.509 25.5036 358.93 30.9914 339.626 37.3497C315.753 45.1588 291.179 54.8838 267.106 61.9686C226.357 73.9613 154.911 87.321 115.011 67.6419C119.212 73.6382 124.559 81.5517 129.166 87.0357C149.021 110.67 178.227 136.181 207.103 147.701C154.255 202.45 132.85 282.165 134.482 356.716C135.196 389.374 142.641 439.051 159.851 467.208C145.202 487.472 136.859 510.361 141.658 535.464C152.476 592.063 195.28 636.075 245.976 659.382C243.598 665.871 240.472 674.797 237.256 680.76C228.079 697.771 210.847 723.224 193.767 731.836C221.297 731.612 248.671 727.684 275.153 720.158C279.995 744.594 296.253 773.384 317.419 787.502C323.314 791.434 331.294 795.053 338.041 797.219C331.448 785.789 328.311 770.874 328.429 757.766C338.507 778.255 342.835 783.994 362.92 795.728C338.198 808.08 323.88 822.964 320.083 851.259C300.327 856.27 281.419 862.901 262.096 868.965C209.973 885.289 158.363 904.63 109.483 929.096C97.4702 935.109 81.8583 942.605 71.4416 950.946C49.159 968.789 29.97 998.053 18.5686 1024L0 1024L0 0Z"/><path fill="#62C5D8" transform="scale(0.488281 0.488281)" d="M790.408 0L1024 0L1024 1024L1002.79 1024C991.816 998.362 973.929 969.108 952.193 951.323C940.033 941.373 921.723 933.022 907.545 926.123C859.054 902.529 808 885.421 757.289 867.438L719.787 853.972C711.971 851.13 703.426 847.718 695.526 845.386C691.064 822.559 674.307 802.572 652.534 794.4C680.006 784.133 688.867 773.081 701.609 748.328C702.998 766.005 699.338 780.442 691.104 795.923C695.094 793.924 698.951 791.668 702.648 789.168C720.911 776.657 734.19 756.627 741.64 735.932C744.098 729.104 745.555 721.303 746.885 714.16C752.177 717.103 758.24 720.468 763.874 722.568C781.15 729.009 803.727 731.174 822.125 731.689C817.598 728.745 813.317 725.438 809.325 721.8C790.778 704.782 782.895 683.008 781.863 658.396C788.821 654.235 795.979 651.053 802.984 646.701C854.877 614.46 912.937 533.861 869.448 473.993C870.065 472.825 870.632 471.632 871.15 470.416C875.343 460.526 878.822 443.768 881.411 433.031C909.392 316.99 882.948 178.816 762.573 126.905C804.83 127.597 845.503 139.939 880.214 164.509C885.164 168.012 890.435 172.295 894.085 177.164C885.675 141.064 868.466 118.494 833.827 104.037C812.429 95.3493 788.474 95.4165 767.125 104.224C760.493 107.011 754.61 111.44 747.976 113.98C763.789 97.6455 777.391 82.3793 784.988 60.5105C791.975 40.4002 795.214 20.9992 790.408 0Z"/><path fill="#312926" transform="scale(0.488281 0.488281)" d="M83.8887 950.469C125.807 925.505 178.042 905.09 223.733 888.342C238.187 883.203 252.704 878.24 267.279 873.455C274.65 925.338 287.98 979.62 316.981 1024L117.258 1024C112.439 1004.2 96.4998 965.935 83.8887 950.469Z"/><path fill="#312926" transform="scale(0.488281 0.488281)" d="M759.781 874.041C806.772 892.256 854.866 909.037 900.606 930.292C909.604 934.473 926.89 942.539 935.195 947.464C922.119 973.913 912.838 994.727 907.044 1024L711.914 1024C713.993 1021.55 715.989 1019.1 717.405 1016.2C737.91 974.31 755.9 920.563 759.781 874.041Z"/><path fill="#07515E" transform="scale(0.488281 0.488281)" d="M439.124 963.47C454.451 941.488 484.784 905.925 513.841 907.318C539.453 908.545 561.242 933.587 577.245 951.548C582.041 957.112 586.695 962.797 591.201 968.598C584.531 980.552 577.706 992.419 570.728 1004.2C567.135 1010.26 562.597 1018.31 558.452 1024L468.414 1024C464.5 1015.47 456.444 1002.66 451.767 994.046C447.914 986.946 440.813 973.05 436.478 967.274L439.124 963.47Z"/><path fill="#033947" transform="scale(0.488281 0.488281)" d="M577.245 951.548C582.041 957.112 586.695 962.797 591.201 968.598C584.531 980.552 577.706 992.419 570.728 1004.2C567.135 1010.26 562.597 1018.31 558.452 1024L468.414 1024C464.5 1015.47 456.444 1002.66 451.767 994.046C447.914 986.946 440.813 973.05 436.478 967.274L439.124 963.47C455.103 984.304 474.785 1028.51 507.947 1014.16C531.115 1004.13 551.443 985.271 567.375 965.946C570.701 961.911 575.241 956.235 577.245 951.548Z"/><path fill="#FEFDFD" transform="scale(0.488281 0.488281)" d="M696.057 851.623C714.326 857.117 735.17 865.88 753.903 871.964C751.258 911.443 737.815 957.356 722.178 993.633C718.13 1003.02 712.006 1014.79 707.269 1024L639.816 1024C662.994 1009.27 683.097 944.947 687.963 917.389C690.574 902.598 693.022 885.868 694.274 870.801C694.784 864.661 695.087 857.641 696.057 851.623Z"/><path fill="#FEFDFD" transform="scale(0.488281 0.488281)" d="M272.288 871.78C288.075 866.385 303.973 861.319 319.97 856.586C320.53 868.416 321.025 877.381 323.137 889.056C325.602 902.699 328.821 916.195 332.781 929.481C339.781 952.82 359.581 1005.2 377.764 1021.02C379.07 1022.16 380.488 1023.15 381.996 1024L323.517 1024C314.673 1010.12 301.683 986.488 295.92 970.801C288.436 950.429 282.024 924.376 277.466 903.25C276.072 896.794 272.503 877.697 272.288 871.78Z"/><path fill="#58423E" transform="scale(0.488281 0.488281)" d="M698.073 0L785.223 0C790.851 22.8929 784.453 53.1373 773.345 73.3982C764.923 88.7579 750.136 107.672 735.512 117.148C734.889 76.9049 721.16 33.0282 698.073 0Z"/><path fill="#312926" transform="scale(0.488281 0.488281)" d="M938.581 949.809C963.728 965.543 982.255 997.872 994.926 1024L913.139 1024C917.719 998.604 927.481 973.039 938.581 949.809Z"/><path fill="#312926" transform="scale(0.488281 0.488281)" d="M82.2075 951.281C93.0794 971.514 106.716 1001.17 110.511 1024L26.2295 1024C42.0571 993.044 54.7582 973.078 82.2075 951.281Z"/><path fill="#FEFDFD" transform="scale(0.488281 0.488281)" d="M395.157 1024C409.792 1013.64 419.908 987.315 433.379 972.088C442.592 990.718 452.776 1006.12 461.928 1024L395.157 1024Z"/><path fill="#FEFDFD" transform="scale(0.488281 0.488281)" d="M594.75 973.753C603.598 985.802 619.926 1017.16 630.009 1024L564.751 1024C574.646 1007.8 585.73 990.3 594.75 973.753Z"/><path fill="#58423E" transform="scale(0.488281 0.488281)" d="M142.483 81.4823C150.046 81.8244 157.513 82.6023 165.079 82.8461C178.56 83.1748 192.048 82.5233 205.435 80.8968C279.502 71.8933 345.151 34.3898 418.174 22.2585C485.638 11.4372 554.786 19.7949 617.729 46.3783C648.675 59.2893 687.264 78.099 710.756 102.57C714.911 106.897 723.143 117.72 727.269 120.499C731.902 123.62 746.704 125.868 753.12 128.168C761.741 131.259 766.452 133.621 774.207 137.895C859.888 185.114 890.405 272.605 885.562 366.374C884.046 395.733 878.802 422.421 871.259 451.057C868.219 387.007 848.627 324.838 814.395 270.618C821.003 288.849 829.2 308.56 832.484 327.734C841.877 382.574 836.265 452.487 812.751 502.894C806.799 515.502 799.986 527.684 792.36 539.355C799.517 502.679 806.584 480.8 799.422 443.489C824.113 447.518 819.892 443.539 819.547 420.834C813.457 415.343 797.367 409.904 789.058 406.882C785.299 378.834 782.041 353.97 772.573 326.96C750.332 263.51 709.48 206.264 643.829 185.159C648.792 165.357 650.972 158.91 652.128 137.71C650.304 142.559 648.729 149.278 647.343 154.4C644.494 164.928 641.784 172.995 636.969 182.841C637.227 187.944 632.758 197.511 630.756 202.389C603.629 268.504 554.701 325.953 496.792 367.366C488.876 373.027 481.605 378.634 473.152 383.655C464.549 388.741 455.795 393.565 446.901 398.121C442.13 400.546 434.029 404.239 429.833 406.804C425.641 405.378 421.429 404.009 417.2 402.698C420.994 398.822 424.057 394.711 427.205 390.305C437.296 376.184 448.274 362.825 457.806 348.297C459.032 346.428 460.763 344.045 462.203 342.34C477.698 317.896 488.183 288.969 499.384 262.447C510.735 235.572 517.295 209.729 523.69 181.376C521.797 185.297 519.843 189.188 517.829 193.048C517.051 197.175 514.63 200.681 513.805 204.404C508.899 226.546 497.598 240.163 483.711 257.679C440.249 312.499 386.45 358.648 328.658 397.804C314.264 407.559 282.975 423.493 266.005 426.296C271.678 410.947 304.541 327.905 311.735 320.897C323.717 290.99 344.812 254.299 362.33 227.669C366.924 220.742 371.694 213.934 376.635 207.252C378.933 204.079 383.814 197.639 385.498 194.379C379.669 198.368 357.192 228.087 352.401 235.06C351.438 239.104 344.166 249.318 341.722 253.351C326.08 279.049 313.719 306.718 299.471 333.204C294.851 341.792 292.177 352.713 287.509 360.739C277.792 377.444 265.208 392.125 255.595 409.045C247.29 412.162 209.351 427.754 205.005 433.732C204.589 435.501 204.736 435.539 205.279 437.226C208.651 440.344 216.338 436.265 220.744 435.032C221.846 439.193 223.47 445.745 223.382 450.103C222.889 474.619 224.374 498.904 228.689 523.086C229.778 529.191 231.136 536.377 231.685 542.498C206.075 515.915 198.604 493.183 192.612 457.853C188.283 432.329 185.27 407.42 185.428 381.412C184.93 345.855 186.877 309.825 196.792 275.471C197.931 271.523 199.491 264.964 202.623 262.346C203.625 251.012 209.454 232.846 213.597 222.376C211.313 225.681 210.029 228.103 208.133 231.679C207.497 239.336 202.12 250.184 199.26 257.597C196.976 263.687 194.944 269.869 193.169 276.127C189.394 289.904 186.073 303.21 184.102 317.473C178.901 355.13 178.989 393.425 183.619 431.143C184.171 435.647 184.704 440.468 185.751 444.85C175.373 450.473 170.889 454.649 162.981 463.467C153.187 444.243 147.83 423.399 143.922 402.243C143.345 399.12 141.956 390.393 142.115 387.4C139.04 363.949 138.697 340.221 141.092 316.691C149.668 236.918 178.362 170.638 242.548 122.35C260.343 108.964 280.832 96.0896 297.733 82.4417C284.742 87.9651 271.56 97.4914 258.961 104.283C251.019 110.745 242.201 116.364 234.226 123.043C226.057 129.886 218.558 136.867 210.844 144.218C187.209 133.128 160.728 111.933 142.5 93.2707C137.861 88.521 133.917 82.8916 129.259 77.9544C134.412 79.5108 137.099 80.6908 142.483 81.4823Z"/><path fill="#312926" transform="scale(0.488281 0.488281)" d="M352.401 235.06C351.438 239.104 344.166 249.318 341.722 253.351C326.08 279.049 313.719 306.718 299.471 333.204C294.851 341.792 292.177 352.713 287.509 360.739C277.792 377.444 265.208 392.125 255.595 409.045C247.29 412.162 209.351 427.754 205.005 433.732C204.589 435.501 204.736 435.539 205.279 437.226C208.651 440.344 216.338 436.265 220.744 435.032C221.846 439.193 223.47 445.745 223.382 450.103C222.889 474.619 224.374 498.904 228.689 523.086C229.778 529.191 231.136 536.377 231.685 542.498C206.075 515.915 198.604 493.183 192.612 457.853C188.283 432.329 185.27 407.42 185.428 381.412C184.93 345.855 186.877 309.825 196.792 275.471C197.931 271.523 199.491 264.964 202.623 262.346C197.744 305.735 195.77 344.136 203.272 387.354C213.785 376.761 228.247 366.194 239.453 356.033C256.804 340.298 272.509 323.735 288.706 306.868C302.907 291.892 316.802 276.63 330.382 261.089C335.743 254.844 347.208 239.812 352.401 235.06Z"/><path fill="#312926" transform="scale(0.488281 0.488281)" d="M517.829 193.048C517.051 197.175 514.63 200.681 513.805 204.404C508.899 226.546 497.598 240.163 483.711 257.679C440.249 312.499 386.45 358.648 328.658 397.804C314.264 407.559 282.975 423.493 266.005 426.296C271.678 410.947 304.541 327.905 311.735 320.897C311.472 324.426 305.391 343.473 303.968 348.333C311.14 345.417 321.732 342.16 329.255 339.491C340.919 335.283 352.377 330.524 363.591 325.231C420.392 297.991 480.129 243.175 517.829 193.048Z"/><path fill="#312926" transform="scale(0.488281 0.488281)" d="M636.969 182.841C637.227 187.944 632.758 197.511 630.756 202.389C603.629 268.504 554.701 325.953 496.792 367.366C488.876 373.027 481.605 378.634 473.152 383.655C464.549 388.741 455.795 393.565 446.901 398.121C442.13 400.546 434.029 404.239 429.833 406.804C425.641 405.378 421.429 404.009 417.2 402.698C420.994 398.822 424.057 394.711 427.205 390.305C437.296 376.184 448.274 362.825 457.806 348.297C459.032 346.428 460.763 344.045 462.203 342.34C463.999 342.109 470.938 338.24 472.947 337.204L490.128 328.555C539.604 303.509 582.777 265.58 614.875 220.218C622.837 208.966 630.295 194.965 636.969 182.841Z"/><path fill="#312926" transform="scale(0.488281 0.488281)" d="M208.133 231.679C207.497 239.336 202.12 250.184 199.26 257.597C196.976 263.687 194.944 269.869 193.169 276.127C189.394 289.904 186.073 303.21 184.102 317.473C178.901 355.13 178.989 393.425 183.619 431.143C184.171 435.647 184.704 440.468 185.751 444.85C175.373 450.473 170.889 454.649 162.981 463.467C153.187 444.243 147.83 423.399 143.922 402.243C143.345 399.12 141.956 390.393 142.115 387.4C143.686 384.897 149.323 360.812 150.593 356.082C152.622 348.738 154.816 341.44 157.176 334.195C165.478 308.826 176.943 285.106 189.227 261.432C194.787 250.718 201.461 241.653 208.133 231.679Z"/><path fill="#312926" transform="scale(0.488281 0.488281)" d="M129.259 77.9544C134.412 79.5108 137.099 80.6908 142.483 81.4823C145.363 83.4264 149.768 85.4489 152.921 87.0372C176.675 99.0033 202.94 104.592 229.417 105.634C240.628 106.076 247.828 106.419 258.961 104.283C251.019 110.745 242.201 116.364 234.226 123.043C226.057 129.886 218.558 136.867 210.844 144.218C187.209 133.128 160.728 111.933 142.5 93.2707C137.861 88.521 133.917 82.8916 129.259 77.9544Z"/><path fill="#ECC5A5" transform="scale(0.488281 0.488281)" d="M228.207 460.394C229.145 461.916 231.282 474.544 232.145 477.598C238.571 496.739 246.118 543.893 257.428 559.06C292.583 606.201 384.312 603.603 429.234 573.38C467.989 547.307 469.512 511.599 477.281 473.552C491.962 465.823 501.107 460.135 518.467 463.84C529.209 466.132 541.653 473.116 547.652 482.561C547.92 500.432 553.973 519.119 561.827 535.092C575.348 562.587 594.903 577.658 624.289 586.827C659.502 597.813 705.323 599.182 738.703 582.074C769.386 566.349 781.593 529.233 791.016 498.223C789.438 525.838 781.919 556.301 774.758 583.19C773.276 587.659 771.759 594.207 770.435 598.982C767.771 608.419 765.031 617.835 762.214 627.227C750.404 666.197 732.307 691.057 702.851 718.861C659.825 759.049 610.102 791.401 555.927 814.453C513.64 832.526 504.541 831.343 462.848 812.436C413.153 789.876 366.909 760.383 325.496 724.837C309.932 711.462 286.693 691.229 277.071 672.977C269.125 657.905 260.866 633.914 256.428 617.507C243.386 569.288 226.723 510.404 228.207 460.394Z"/><path fill="#020101" transform="scale(0.488281 0.488281)" d="M494.834 643.721C516.505 642.131 591.202 646.567 608.759 657.148C611.224 658.633 612.764 660.608 613.423 663.435C615.769 673.502 606.176 691.084 600.888 699.281C583.896 725.624 558.941 744.239 528.25 750.912C526.331 751.219 524.407 751.49 522.478 751.725C470.121 757.904 419.036 720.277 409.367 667.504C409.031 665.672 409.666 660.777 411.277 659.806C431.961 647.348 471.695 644.951 494.834 643.721Z"/><path fill="#C2866B" transform="scale(0.488281 0.488281)" d="M554.839 677.659C556.489 677.454 561.872 679.393 563.512 680.162C574.814 685.462 585.371 693.667 590.037 705.507C558.837 742.017 521.448 757.967 474.679 740.066C458.218 733.142 444.644 721.876 433.844 707.792C440.122 695.254 455.929 683.86 469.388 680.368C472.016 679.686 483.939 681.015 487.568 681.238C493.792 681.567 500.021 681.792 506.252 681.914C522.815 682.186 538.578 680.473 554.839 677.659Z"/><path fill="#FEFDFD" transform="scale(0.488281 0.488281)" d="M490.446 649.715C520.001 648.612 562.344 650.253 591.211 657.242C574.212 670.145 547.64 674.667 526.624 675.976C497.815 677.842 448.767 675.951 424.387 659.111C439.686 653.665 473.982 650.684 490.446 649.715Z"/><path fill="#A45654" transform="scale(0.488281 0.488281)" d="M417.643 660.441C420.448 661.352 424.833 665.467 428.302 667.17C440.786 673.298 452.08 676.432 465.462 679.227C458.019 682.092 453.62 684.519 447.184 689.06C439.744 694.621 437.287 698.415 431.599 705.426C424.674 695.388 414.525 678.069 414.465 665.211C414.454 662.859 415.958 661.743 417.643 660.441Z"/><path fill="#A45654" transform="scale(0.488281 0.488281)" d="M596.327 658.33C605.046 659.407 610.933 661.908 608.17 671.416C604.611 683.656 598.869 692.544 592.111 703.047C589.634 698.565 588.604 696.571 585.553 692.344C577.919 684.013 572.016 680.779 561.573 676.484C574.744 672.45 586.916 668.615 596.327 658.33Z"/><path fill="#020101" transform="scale(0.488281 0.488281)" d="M493.301 564.374C493.622 568.812 492.033 577.559 492.564 581.921C494.128 594.768 499.553 609.693 503.247 622.313L497.979 615.89C492.365 608.519 484.501 595.946 481.494 587.199C483.769 580.491 489.407 570.4 493.301 564.374Z"/><path fill="#553318" transform="scale(0.488281 0.488281)" d="M524.238 604.666C525.743 604.519 526.725 604.288 528.165 604.751C525.769 606.436 518.949 607.608 515.979 608.141L509.379 609.683C514.912 606.216 518.023 605.491 524.238 604.666Z"/><path fill="#ECC5A5" transform="scale(0.488281 0.488281)" d="M659.547 404.712C664.416 404.298 673.114 404.415 678.049 404.464C708.423 404.766 744.449 408.403 773.702 416.764C773.949 433.557 773.595 450.354 772.639 467.121C771.344 491.91 770.667 524.956 759.59 546.966C743.779 578.382 704.084 586.896 672.125 585.105C645.618 584.188 610.631 575.812 590.724 558.444C568.802 539.319 558 507.11 556.102 478.861C555.225 465.804 554.148 441.446 563.68 431.555C583.58 410.905 632.637 406.591 659.547 404.712Z"/><path fill="#FEFDFD" transform="scale(0.488281 0.488281)" d="M586.29 490.676L585.74 490.995C584.94 485.773 588.318 456.874 589.013 449.845C589.168 448.278 590.317 445.571 591.362 444.213C594.549 440.09 598.861 436.671 602.888 433.441C618.264 421.106 637.093 412.446 656.852 410.176C702.468 404.935 735.632 443.838 752.966 480.467C751.111 484.607 749.742 488.665 747.843 492.846C743.114 503.117 737.451 512.932 730.926 522.167C729.831 523.749 727.305 527.833 725.711 528.329C725.192 529.599 724.386 531.497 723.434 532.473C690.964 565.763 628.626 573.021 599.488 531.267C590.784 518.793 587.656 505.869 586.29 490.676Z"/><path fill="#020101" transform="scale(0.488281 0.488281)" d="M586.29 490.676L585.74 490.995C584.94 485.773 588.318 456.874 589.013 449.845C589.168 448.278 590.317 445.571 591.362 444.213C594.549 440.09 598.861 436.671 602.888 433.441C618.264 421.106 637.093 412.446 656.852 410.176C702.468 404.935 735.632 443.838 752.966 480.467C751.111 484.607 749.742 488.665 747.843 492.846C743.114 503.117 737.451 512.932 730.926 522.167C729.831 523.749 727.305 527.833 725.711 528.329C729.944 515.652 733.974 502.909 737.802 490.105C733.366 480.84 728.058 472.018 721.951 463.758C709.396 446.844 685.55 430.726 664.419 427.882C642.147 424.884 616.462 440.549 601.193 455.774C594.164 462.782 587.659 481.126 586.29 490.676Z"/><path fill="#020101" transform="scale(0.488281 0.488281)" d="M654.154 429.682C663.134 428.637 675.616 432.457 682.605 438.058C706.022 456.899 712.674 489.688 700.49 516.811C692.256 535.139 678.323 547.053 658.122 549.389C630.744 550.431 609.289 526.791 606.111 500.419C604.121 483.903 611.134 461.197 620.712 447.403C628.224 436.583 641.127 431.267 654.154 429.682Z"/><path fill="#935922" transform="scale(0.488281 0.488281)" d="M627.019 448.25C637.092 433.578 663.899 430.66 678.135 440.906C696.486 454.113 706.83 485.298 698.432 506.641C693.199 521.218 686.082 533.791 671.747 540.999C649.332 552.268 626.094 538.077 616.337 517.029C609.158 501.544 610.486 487.127 616.248 471.486C610.246 462.608 617.392 451.105 627.019 448.25Z"/><path fill="#553318" transform="scale(0.488281 0.488281)" d="M627.019 448.25C637.092 433.578 663.899 430.66 678.135 440.906C696.486 454.113 706.83 485.298 698.432 506.641C698.266 505.055 698.424 505.491 697.844 504.063C694.447 503.634 691.091 503.757 687.435 503.709C684.228 503.666 679.319 503.782 675.956 503.816C675.068 504.699 674.307 505.456 673.673 506.086C676.541 499.878 677.662 495.359 677.201 488.286C676.543 476.66 666.65 463.511 654.013 464.878C647.659 465.564 644.259 469.232 640.672 473.938C641.169 472.047 641.574 472.038 640.663 470.556C634.252 475.782 629.89 477.537 621.611 475.41C619.562 474.091 618.148 472.975 616.248 471.486C610.246 462.608 617.392 451.105 627.019 448.25Z"/><path fill="#FEFDFD" transform="scale(0.488281 0.488281)" d="M627.019 448.25C640.142 448.794 648.192 458.673 640.663 470.556C634.252 475.782 629.89 477.537 621.611 475.41C619.562 474.091 618.148 472.975 616.248 471.486C610.246 462.608 617.392 451.105 627.019 448.25Z"/><path fill="#020101" transform="scale(0.488281 0.488281)" d="M640.672 473.938C644.259 469.232 647.659 465.564 654.013 464.878C666.65 463.511 676.543 476.66 677.201 488.286C677.662 495.359 676.541 499.878 673.673 506.086C656.15 531.406 632.951 511.939 634.603 485.861C634.747 485.657 636.064 481.973 636.448 481.098C637.743 478.152 638.842 476.563 640.672 473.938Z"/><path fill="#6F3D17" transform="scale(0.488281 0.488281)" d="M621.611 475.41C629.89 477.537 634.252 475.782 640.663 470.556C641.574 472.038 641.169 472.047 640.672 473.938C638.842 476.563 637.743 478.152 636.448 481.098C636.064 481.973 634.747 485.657 634.603 485.861L634.229 485.6C633.798 482.807 638.61 475.401 629.242 477.008C626.444 477.489 624.255 477.143 621.64 476.05L621.611 475.41Z"/><path fill="#ECC5A5" transform="scale(0.488281 0.488281)" d="M348.52 407.715C356.548 407.502 364.581 407.638 372.596 408.123C396.946 409.654 448.757 418.077 465.674 436.964C469.471 441.203 469.279 448.306 468.721 453.684C465.104 488.532 459.86 536.871 430.748 560.293C405.6 580.526 365.581 587.756 334.348 585.295C310.029 583.754 271.465 571.81 263.523 545.231C253.72 512.421 243.721 477.831 237.462 444.068C243.828 435.745 250.057 427.317 256.146 418.789C258.779 418.07 261.73 417.425 264.409 416.785C263.059 422.123 258.991 431.297 258.652 435.413L259.146 435.884C261.738 435.285 262.128 433.494 262.971 431.249C273.054 427.906 281.066 426.816 291.615 422.233C296.736 420.009 311.7 411.982 314.993 411.243C323.836 409.261 339.449 408.247 348.52 407.715Z"/><path fill="#FEFDFD" transform="scale(0.488281 0.488281)" d="M272.367 489.378C268.302 473.525 281.042 453.691 291.504 442.657C308.831 424.453 332.707 413.918 357.832 413.391C368.626 413.183 376.419 413.845 386.672 416.967C411.432 424.505 426.076 446.643 432.588 470.609C433.734 474.828 435.227 479.58 435.309 484.062L435.468 484.828C436.365 489.075 437.7 492.651 438.018 497.135C440.132 526.969 414.79 553.663 386.468 558.987C359.964 563.969 326.782 561.098 303.458 546.731C288.462 537.026 275.636 517.954 272.092 500.505C271.427 497.233 270.593 492.273 272.367 489.378Z"/><path fill="#020101" transform="scale(0.488281 0.488281)" d="M272.367 489.378C268.302 473.525 281.042 453.691 291.504 442.657C308.831 424.453 332.707 413.918 357.832 413.391C368.626 413.183 376.419 413.845 386.672 416.967C411.432 424.505 426.076 446.643 432.588 470.609C433.734 474.828 435.227 479.58 435.309 484.062C431.487 474.867 428.002 466.825 421.537 459.087C398.075 431.005 366.781 422.155 332.836 436.324C314.2 444.129 299.456 459.059 291.885 477.792C287.508 488.515 284.506 496.933 289.089 507.682C292.495 515.752 296.582 523.518 301.305 530.895C288.403 520.647 278.073 504.727 272.367 489.378Z"/><path fill="#020101" transform="scale(0.488281 0.488281)" d="M362.782 432.665C404.724 429.895 428.87 479.849 414.376 514.913C406.984 532.797 395.779 543.973 377.241 549.19C313.271 558.3 298.245 441.751 362.782 432.665Z"/><defs><linearGradient id="gradient_0" gradientUnits="userSpaceOnUse" x1="390.53979" y1="444.99185" x2="348.84735" y2="536.12659"><stop offset="0" stop-color="#724322"/><stop offset="1" stop-color="#A16C37"/></linearGradient></defs><path fill="url(#gradient_0)" transform="scale(0.488281 0.488281)" d="M363.368 438.161C370.793 437.034 378.385 438.258 385.08 441.662C425.337 462.311 422.79 530.158 378.094 543.305C367.226 546.039 358.14 542.374 349.244 536.315C316.965 514.325 319.048 444.573 363.368 438.161Z"/><path fill="#020101" transform="scale(0.488281 0.488281)" d="M356.641 469.892C370.737 461.296 383.124 462.525 391.812 477.372C395.897 484.255 397.02 492.499 394.924 500.224C388.739 522.381 360.917 527.889 350.165 506.085C344.193 493.973 347.396 482.612 354.777 472.074L356.641 469.892Z"/><path fill="#FEFDFD" transform="scale(0.488281 0.488281)" d="M354.777 472.074C342.47 478.903 334.65 469.164 337.124 459.349C340.264 446.891 365.057 451.339 356.641 469.892L354.777 472.074Z"/><path fill="#ECC5A5" transform="scale(0.488281 0.488281)" d="M624.773 228.272C688.543 262.458 742.041 321.398 771.377 387.353C772.71 390.35 772.517 399.059 772.53 402.701C749.804 396.021 724.337 393.759 700.798 392.714C672.728 391.267 644.586 393.027 616.916 397.96C593.141 402.087 571.954 407.922 553.661 424.67C543.493 435.815 545.354 442.879 545.432 457.465C540.642 453.286 535.076 450.092 529.051 448.066C510.669 441.897 494.877 446.004 478.375 454.201C478.463 446.865 479.059 439.665 475.595 432.933C468.534 419.21 449.688 413.402 436.014 408.77C511.181 378.141 588.705 300.538 624.773 228.272Z"/><path fill="#020101" transform="scale(0.488281 0.488281)" d="M614.716 329.71C624.728 328.738 639.625 330.086 649.641 331.27C682.607 335.164 741.876 356.378 756.001 388.226C752.621 384.234 749.133 381.488 745.498 378.117C731.397 365.041 718.637 362.85 700.117 360.075C657.144 354.643 593.982 363.334 555.265 382.565C563.042 363.385 582.867 338.714 603.028 331.022C604.964 330.284 612.181 329.906 614.716 329.71Z"/><path fill="#58423E" transform="scale(0.488281 0.488281)" d="M620.469 333.724C648.114 333.129 678.505 339.766 703.57 351.115C708.089 353.161 715.457 356.329 718.976 359.462C693.448 353.412 674.13 352.839 647.88 355.121C630.837 356.917 613.049 360.43 596.285 364.04C585.459 366.371 574.302 370.43 563.762 373.945C566.219 368.848 572.435 360.635 576.423 356.461C583.223 349.345 594.249 338.163 603.976 335.36C608.362 334.095 615.794 333.936 620.469 333.724Z"/><path fill="#FEFDFD" transform="scale(0.488281 0.488281)" d="M382.766 796.664C383.394 796.547 386.672 796.363 387.474 796.304C387.554 809.142 388.505 823.195 388.739 836.392C384.827 832.847 370.94 815.685 367.364 817.161C366.994 818.016 366.376 819.294 366.993 820.146C392.881 855.869 453.521 891.194 491.654 906.438C468.635 917.647 440.282 950.04 426.836 971.701C421.479 979.583 416.371 987.568 411.307 995.639C407.261 1002.09 403.311 1009.21 398.211 1014.89C396.245 1017.08 393.708 1019.45 390.755 1020.14C387.789 1020.83 384.734 1019.76 382.304 1018.08C362.936 1004.65 340.991 940.08 334.698 916.994C331.533 905.382 329.174 893.429 327.317 881.54C324.157 861.314 322.908 841.264 335.658 823.976C347.637 807.732 363.128 799.611 382.766 796.664Z"/><path fill="#FEFDFD" transform="scale(0.488281 0.488281)" d="M635.282 796.155C661.32 798.234 679.545 815.497 688.136 839.242C689.588 843.254 690.786 847.305 690.605 851.626C690.16 862.236 688.931 872.813 687.773 883.363C685.938 899.365 683.448 915.374 680.09 931.13C675.32 950.454 666.598 972.528 658.123 990.542C653.668 999.07 649.414 1008.52 642.564 1015.39C636.397 1021.57 631.687 1019.87 626.69 1013.59C621.676 1007.29 617.897 1000.3 613.715 993.457C609.166 986.163 604.51 978.936 599.748 971.779C586.473 953.454 568.203 931.697 550.345 917.75C544.243 912.985 537.83 909.787 531.247 906.025C562.597 891.24 628.835 855.891 647.37 827.095C648.584 825.208 650.699 822.514 651.191 820.316C651.47 819.069 651.061 818.743 650.334 817.863L649.198 817.769C644.99 819.633 642.131 826.412 638.95 829.997C637.285 831.873 636.191 833.025 634.35 834.796C633.258 825.596 633.716 805.278 635.282 796.155Z"/><path fill="#C2866B" transform="scale(0.488281 0.488281)" d="M391.696 779.944C418.68 798.116 467.435 823.536 498.406 831.48C532.145 840.135 603.898 798.361 631.922 780.33C630.544 792.252 629.678 803.091 628.618 815.017C628.466 822.446 627.977 832.173 629.124 839.365C608.107 859.467 577.521 875.268 552.485 889.908C543.87 894.946 533.252 898.211 524.781 903.699C513.958 901.753 509.724 901.454 499.257 904.39C465.206 888.792 420.615 867.473 393.994 840.765C393.872 833.282 393.472 825.034 393.501 817.664C393.662 804.875 392.636 792.678 391.696 779.944Z"/><path fill="#ECC5A5" transform="scale(0.488281 0.488281)" d="M393.501 817.664C402.131 822.684 410.255 828.959 418.742 834.283C442.439 849.15 469.123 863.082 496.054 870.989C503.06 873.046 510.389 874.275 517.687 873.252C540.263 870.089 588.184 842.8 608.338 829.601C613.066 826.51 617.691 823.264 622.206 819.869C623.682 818.76 627.22 815.558 628.618 815.017C628.466 822.446 627.977 832.173 629.124 839.365C608.107 859.467 577.521 875.268 552.485 889.908C543.87 894.946 533.252 898.211 524.781 903.699C513.958 901.753 509.724 901.454 499.257 904.39C465.206 888.792 420.615 867.473 393.994 840.765C393.872 833.282 393.472 825.034 393.501 817.664Z"/><path fill="#C2866B" transform="scale(0.488281 0.488281)" d="M835.087 450.795C853.369 460.291 869.755 478.232 875.646 498.275C894.526 562.509 825.79 640.071 767.08 657.91C763.13 659.113 759.136 660.169 755.107 661.076C758.628 652.697 764.635 638.975 766.716 630.363C775.646 606.341 781.169 577.389 788.098 552.539C789.126 548.852 799.409 535.193 802.302 530.757C812.381 515.3 820.146 500.526 826.27 483.025C839.165 493.995 849.385 506.93 855.748 522.698C857.894 528.013 861.012 538.513 860.111 544.169L861.36 545.254C867.5 543.521 858.358 519.106 856.439 515.156C849.201 500.257 840.278 489.385 827.294 479.251C830.356 469.364 832.883 460.893 835.087 450.795Z"/><path fill="#ECC5A5" transform="scale(0.488281 0.488281)" d="M835.087 450.795C853.369 460.291 869.755 478.232 875.646 498.275C894.526 562.509 825.79 640.071 767.08 657.91C763.13 659.113 759.136 660.169 755.107 661.076C758.628 652.697 764.635 638.975 766.716 630.363C800.58 620.495 829.513 598.287 847.8 568.125C850.051 564.514 852.1 560.781 853.939 556.943C854.909 554.96 859.236 544.981 860.111 544.169L861.36 545.254C867.5 543.521 858.358 519.106 856.439 515.156C849.201 500.257 840.278 489.385 827.294 479.251C830.356 469.364 832.883 460.893 835.087 450.795Z"/><path fill="#C2866B" transform="scale(0.488281 0.488281)" d="M186.364 450.252C188.422 459.289 189.672 469.874 191.824 479.589C169.881 503.553 159.831 530.012 173.761 560.702C173.819 555.565 171.189 547.959 170.596 542.368C168.398 521.639 179.287 500.748 192.99 486.016C200.343 509.971 212.473 535.44 233.539 550.322C237.328 569.115 242.202 587.75 247.53 606.159C250.365 615.954 253.165 627.061 256.66 636.563C259.618 644.751 262.421 652.993 265.066 661.287C256.593 658.054 248.305 654.946 240.196 650.864C208.367 634.939 181.876 610.074 163.968 579.317C149.86 554.549 141.115 529.39 148.71 500.503C153.833 481.019 168.602 460.186 186.364 450.252Z"/><path fill="#ECC5A5" transform="scale(0.488281 0.488281)" d="M186.364 450.252C188.422 459.289 189.672 469.874 191.824 479.589C169.881 503.553 159.831 530.012 173.761 560.702C174.374 563.04 173.748 562.184 175.407 563.553L175.316 562.917C179.089 566.597 181.694 571.191 184.848 575.368C201.238 597.074 220.98 615.678 244.515 629.453C248.267 631.649 252.744 634.774 256.66 636.563C259.618 644.751 262.421 652.993 265.066 661.287C256.593 658.054 248.305 654.946 240.196 650.864C208.367 634.939 181.876 610.074 163.968 579.317C149.86 554.549 141.115 529.39 148.71 500.503C153.833 481.019 168.602 460.186 186.364 450.252Z"/><path fill="#312926" transform="scale(0.488281 0.488281)" d="M641.959 189.723C646.186 190.567 653.581 194.123 657.557 195.909C675.626 204.025 692.642 214.583 706.594 228.815C713.412 235.77 723.827 246.862 729.48 255.07C743.026 275.529 757.977 300.015 765.982 323.264C772.997 343.636 781.922 376.771 782.017 397.903L777.723 388.335C774.756 382.8 772.296 376.759 769.377 371.104C737.919 310.155 689.678 255.674 627.681 223.865C631.576 214.741 637.846 197.676 641.959 189.723Z"/><path fill="#312926" transform="scale(0.488281 0.488281)" d="M759.817 665.725C765.529 664.533 771.607 662.476 777.09 660.484C777.826 683.487 782.09 695.441 795.881 715.07C797.393 717.221 802.443 721.942 802.823 723.437C801.748 723.917 802.334 723.79 801.053 723.75C785.537 724.993 759.394 716.36 746.746 707.221L744.623 700.958C742.367 708.587 741.69 717.329 739.498 724.851C732.509 748.834 720.854 767.647 701.942 783.512C702.044 783.18 702.142 782.847 702.237 782.514C705.541 771.027 710.246 742.306 704.696 732.256L703.912 732.061C701.506 735.527 699.159 741.276 697.477 745.261C690.921 760.793 680.935 774.167 665.982 782.447C656.282 787.818 647.668 791.917 636.415 791.989C636.398 786.787 636.249 780.644 638.401 775.898C677.326 750.321 715.5 719.263 742.784 681.168C746.026 676.642 748.837 671.834 752.136 667.344C754.706 666.668 757.212 666.223 759.817 665.725Z"/><path fill="#58423E" transform="scale(0.488281 0.488281)" d="M759.817 665.725C765.529 664.533 771.607 662.476 777.09 660.484C777.826 683.487 782.09 695.441 795.881 715.07C797.393 717.221 802.443 721.942 802.823 723.437C801.748 723.917 802.334 723.79 801.053 723.75C799.064 722.579 797.09 721.382 795.132 720.16C772.903 706.043 765.213 690.01 759.817 665.725Z"/><path fill="#312926" transform="scale(0.488281 0.488281)" d="M277.903 684.934C289.424 696.826 299.741 709.848 312.409 720.703C316.347 724.078 320.481 727.295 324.184 730.913C323.089 757.632 320.902 761.318 328.338 788.811C325.231 787.685 320.067 783.71 317.311 781.709C293.425 764.359 271.097 714.035 277.903 684.934Z"/><path fill="#58423E" transform="scale(0.488281 0.488281)" d="M794.536 103.688C818.164 100.567 843.399 112.051 860.938 127.275C869.793 134.961 878.088 147.843 882.461 158.655C870.826 150.683 863.444 146.934 850.737 141.008C825.046 128.939 794.325 121.568 765.907 121.945C759.156 122.034 752.546 121.742 745.815 121.291C756.372 111.604 780.37 105.208 794.536 103.688Z"/><path fill="#312926" transform="scale(0.488281 0.488281)" d="M837.324 326.78C838.797 327.915 840.237 332.116 840.929 334.038C853.23 368.217 863.205 403.425 865.896 439.795C866.594 449.228 866.113 459.4 865.94 468.803C864.871 467.977 863.765 466.915 862.75 465.999C851.201 454.002 850.633 453.66 835.902 446.384C843.542 404.002 844.503 368.93 837.324 326.78Z"/><path fill="#312926" transform="scale(0.488281 0.488281)" d="M250.671 661.238C254.365 662.684 258.225 664.449 261.881 666.042C268.624 668.454 269.045 669.176 272.569 675.533C271.096 685.271 271.324 705.823 273.579 715.034C252.958 720.538 235.614 724.002 214.123 725.112C213.066 725.328 213.314 725.287 212.239 725.266C213.174 723.592 216.165 720.489 217.587 718.835C232.698 701.274 243.949 683.674 250.671 661.238Z"/><path fill="#58423E" transform="scale(0.488281 0.488281)" d="M250.671 661.238C254.365 662.684 258.225 664.449 261.881 666.042C255.715 683.926 246.742 703.03 231.194 715.049C226.683 718.536 219.101 721.677 214.123 725.112C213.066 725.328 213.314 725.287 212.239 725.266C213.174 723.592 216.165 720.489 217.587 718.835C232.698 701.274 243.949 683.674 250.671 661.238Z"/><path fill="#ECC5A5" transform="scale(0.488281 0.488281)" d="M498.807 247.392C499.276 249.998 494.304 260.32 492.993 263.516C480.141 294.832 466 325.629 447.646 354.147C444.02 349.861 441.388 346.159 437.418 341.711C432.513 336.792 429.348 334.177 423.63 330.235C452.801 303.117 474.425 278.646 498.807 247.392Z"/><path fill="#ECC5A5" transform="scale(0.488281 0.488281)" d="M383.257 364.514C395.357 366.354 420.668 371.824 431.403 377.157C425.948 385.604 417.999 393.701 411.861 401.769L392.392 397.965C372.685 394.4 359.612 394.672 339.849 395.586C347.895 389.453 356.423 383.857 364.747 378.108C371.03 373.769 377.092 369.036 383.257 364.514Z"/><path fill="#312926" transform="scale(0.488281 0.488281)" d="M328.042 734.163C329.409 734.797 336.039 740.389 337.545 741.765C352.219 755.171 369.823 764.866 385.359 776.628C385.736 779.44 387.271 788.744 386.294 790.74L385.107 790.879C379.331 791.571 375.049 792.048 369.526 793.828C363.103 790.421 353.007 784.516 347.954 779.309C337.117 768.141 328.245 749.839 328.042 734.163Z"/><path fill="#58423E" transform="scale(0.488281 0.488281)" d="M420.354 333.3C428.114 337.524 439.139 350.88 444.872 357.88L434.346 373.619C429.099 371.386 425.224 370.006 419.866 368.23C409.526 365.097 399.037 362.883 388.477 360.636C397.705 352.135 410.495 341.968 420.354 333.3Z"/><path fill="#312926" transform="scale(0.488281 0.488281)" d="M778.712 428.861C780.31 430.294 784.05 437.254 784.656 439.501C791.34 464.293 787.368 507.139 775.959 529.389C775.052 530.751 773.921 533.346 773.173 534.912L773.054 533.903C772.108 526.184 775.018 511.45 775.613 502.296C777.218 477.642 777.792 453.46 778.712 428.861Z"/><path fill="#312926" transform="scale(0.488281 0.488281)" d="M789.294 440.547C791.256 441.298 792.35 441.726 794.198 442.697C796.979 448.61 798.579 479.68 794.773 484.766C794.015 485.82 793.579 486.693 792.419 487.214C792.137 485.457 792.566 471.029 792.543 468.273C792.462 458.575 791.332 450.032 789.294 440.547Z"/><path fill="#312926" transform="scale(0.488281 0.488281)" d="M248.844 423.134L249.071 423.503C242.81 429.693 241.502 433.514 236.876 439.167L236.349 438.91L233.951 427.994C238.897 426.303 243.825 424.879 248.844 423.134Z"/><path fill="#312926" transform="scale(0.488281 0.488281)" d="M775.975 396.804C778.326 397.647 780.34 401.78 781.591 403.995C779.035 403.975 779.307 404.369 777.47 403.222C776.277 401.469 776.247 399.012 775.975 396.804Z"/></svg>